<?xml version="1.0" encoding="utf-8"?>
<!-- Generator: Adobe Illustrator 24.0.1, SVG Export Plug-In . SVG Version: 6.00 Build 0)  -->
<svg version="1.1" id="Layer_1" xmlns="http://www.w3.org/2000/svg" xmlns:xlink="http://www.w3.org/1999/xlink" x="0px" y="0px"
	 viewBox="0 0 70 70" style="enable-background:new 0 0 70 70;" xml:space="preserve">
<style type="text/css">
	.st0{fill:#FFFFFF;}
</style>
<path class="st0" d="M49.61,0c-0.02,0-0.03,0-0.03,0H20.87C20.1,0,6,0.13,2,17.92v33.8C6,70,20.89,70,20.89,70h28.69
	c0,0,14.42,0,18.42-18.28v-33.8C65,0.13,50.38,0,49.61,0z M24,54h-7V25h7V54z M21.01,24.37c-2.47,0-4.48-2.13-4.48-4.76
	c0-2.63,2-4.76,4.48-4.76c2.48,0,4.49,2.12,4.49,4.76C25.5,22.23,23.49,24.37,21.01,24.37z M44.2,54C45.15,28,36,38.28,36,38.28V54
	h-9V25h9v3.51c9-3.82,14.6-1.25,16.29,6.49c0.47,1.25,0.6,18.99,0.6,18.99H44.2z"/>
</svg>
