<?xml version="1.0" encoding="utf-8"?>
<!-- Generator: Adobe Illustrator 24.0.1, SVG Export Plug-In . SVG Version: 6.00 Build 0)  -->
<svg version="1.1" id="Layer_1" xmlns="http://www.w3.org/2000/svg" xmlns:xlink="http://www.w3.org/1999/xlink" x="0px" y="0px"
	 viewBox="0 0 70 70" style="enable-background:new 0 0 70 70;" xml:space="preserve">
<style type="text/css">
	.st0{fill:#FFFFFF;}
	.st1{fill:none;stroke:#FFFFFF;stroke-width:5;stroke-miterlimit:10;}
</style>
<g>
	<path class="st0" d="M27.69,22.07c0,0,1.47-1.1,2.09-1.04c0.99-0.06,2.33,0.12,2.58,1.04c0.25,0.92,2.03,4.47,2.03,4.47
		s0.61,2.09-0.43,2.88c-1.04,0.8-1.17,1.1-1.17,1.1s-0.55,0.67-0.06,1.65c0.49,0.98,5.65,7.3,9.21,7.85c0,0,1.35,0.31,1.66-0.34
		l1.97-2.39c0,0,1.04-1.01,2.03-0.24l4.91,2.42c0,0,0.89,0.31,0.67,1.81c0,0-0.46,4.29-5.19,5.09c0,0-10.65-1.26-18.7-10.67
		c0,0-5.5-5.67-2.98-11.74C26.31,23.97,27.2,22.61,27.69,22.07z"/>
	<path class="st1" d="M17.68,45.2c-2.53-3.96-3.99-8.66-3.99-13.69C13.69,17.42,25.13,6,39.23,6c14.1,0,25.54,11.42,25.54,25.5
		c0,14.09-11.44,25.5-25.54,25.5c-4.23,0-8.48-0.98-11.99-2.79"/>
	<polyline class="st1" points="15.82,41.71 18.17,45.02 8.53,63.88 29.16,54.95 33.08,56.32 	"/>
</g>
</svg>
